<mxfile host="app.diagrams.net" modified="2021-12-22T05:54:59.886Z" agent="5.0 (Macintosh; Intel Mac OS X 10_15_7) AppleWebKit/537.36 (KHTML, like Gecko) Chrome/96.0.4664.110 Safari/537.36" etag="lqjgce9_ZwJ6HvUuuUMj" version="16.0.0" type="github">
  <diagram id="0DmhKtrQQN23l6t86Fgn" name="第 1 页">
    <mxGraphModel dx="1426" dy="794" grid="1" gridSize="10" guides="1" tooltips="1" connect="1" arrows="1" fold="1" page="1" pageScale="1" pageWidth="827" pageHeight="1169" background="#ffffff" math="0" shadow="0">
      <root>
        <mxCell id="0" />
        <mxCell id="1" parent="0" />
        <mxCell id="HGLe5gLv3orTPowbgpZ5-3" value="" style="edgeStyle=orthogonalEdgeStyle;rounded=0;orthogonalLoop=1;jettySize=auto;html=1;sketch=1;shadow=1;fillColor=#f8cecc;strokeColor=#b85450;gradientColor=#ea6b66;" parent="1" source="HGLe5gLv3orTPowbgpZ5-1" target="HGLe5gLv3orTPowbgpZ5-2" edge="1">
          <mxGeometry relative="1" as="geometry" />
        </mxCell>
        <mxCell id="HGLe5gLv3orTPowbgpZ5-1" value="1" style="rounded=0;whiteSpace=wrap;html=1;sketch=1;shadow=1;fillColor=#f8cecc;strokeColor=#b85450;gradientColor=#ea6b66;" parent="1" vertex="1">
          <mxGeometry x="80" y="80" width="40" height="30" as="geometry" />
        </mxCell>
        <mxCell id="HGLe5gLv3orTPowbgpZ5-5" value="" style="edgeStyle=orthogonalEdgeStyle;rounded=0;orthogonalLoop=1;jettySize=auto;html=1;sketch=1;shadow=1;fillColor=#f8cecc;strokeColor=#b85450;gradientColor=#ea6b66;" parent="1" source="HGLe5gLv3orTPowbgpZ5-2" target="HGLe5gLv3orTPowbgpZ5-4" edge="1">
          <mxGeometry relative="1" as="geometry" />
        </mxCell>
        <mxCell id="HGLe5gLv3orTPowbgpZ5-2" value="2" style="rounded=0;whiteSpace=wrap;html=1;sketch=1;shadow=1;fillColor=#f8cecc;strokeColor=#b85450;gradientColor=#ea6b66;" parent="1" vertex="1">
          <mxGeometry x="160" y="80" width="40" height="30" as="geometry" />
        </mxCell>
        <mxCell id="HGLe5gLv3orTPowbgpZ5-7" value="" style="edgeStyle=orthogonalEdgeStyle;rounded=0;orthogonalLoop=1;jettySize=auto;html=1;sketch=1;shadow=1;fillColor=#f8cecc;strokeColor=#b85450;gradientColor=#ea6b66;" parent="1" source="HGLe5gLv3orTPowbgpZ5-4" target="HGLe5gLv3orTPowbgpZ5-6" edge="1">
          <mxGeometry relative="1" as="geometry" />
        </mxCell>
        <mxCell id="HGLe5gLv3orTPowbgpZ5-4" value="3" style="rounded=0;whiteSpace=wrap;html=1;sketch=1;shadow=1;fillColor=#f8cecc;strokeColor=#b85450;gradientColor=#ea6b66;" parent="1" vertex="1">
          <mxGeometry x="240" y="80" width="40" height="30" as="geometry" />
        </mxCell>
        <mxCell id="HGLe5gLv3orTPowbgpZ5-9" value="" style="edgeStyle=orthogonalEdgeStyle;rounded=0;orthogonalLoop=1;jettySize=auto;html=1;sketch=1;shadow=1;fillColor=#f8cecc;strokeColor=#b85450;gradientColor=#ea6b66;" parent="1" source="HGLe5gLv3orTPowbgpZ5-6" target="HGLe5gLv3orTPowbgpZ5-8" edge="1">
          <mxGeometry relative="1" as="geometry" />
        </mxCell>
        <mxCell id="HGLe5gLv3orTPowbgpZ5-6" value="4" style="rounded=0;whiteSpace=wrap;html=1;sketch=1;shadow=1;fillColor=#f8cecc;strokeColor=#b85450;gradientColor=#ea6b66;" parent="1" vertex="1">
          <mxGeometry x="320" y="80" width="40" height="30" as="geometry" />
        </mxCell>
        <mxCell id="HGLe5gLv3orTPowbgpZ5-8" value="5" style="rounded=0;whiteSpace=wrap;html=1;sketch=1;shadow=1;fillColor=#f8cecc;strokeColor=#b85450;gradientColor=#ea6b66;" parent="1" vertex="1">
          <mxGeometry x="400" y="80" width="40" height="30" as="geometry" />
        </mxCell>
        <mxCell id="HGLe5gLv3orTPowbgpZ5-10" value="" style="shape=flexArrow;endArrow=classic;html=1;rounded=0;shadow=1;sketch=1;" parent="1" edge="1">
          <mxGeometry width="50" height="50" relative="1" as="geometry">
            <mxPoint x="260" y="170" as="sourcePoint" />
            <mxPoint x="259.5" y="120" as="targetPoint" />
          </mxGeometry>
        </mxCell>
        <mxCell id="HGLe5gLv3orTPowbgpZ5-11" value="" style="edgeStyle=orthogonalEdgeStyle;rounded=0;orthogonalLoop=1;jettySize=auto;html=1;sketch=1;shadow=1;fillColor=#f8cecc;strokeColor=#b85450;gradientColor=#ea6b66;" parent="1" source="HGLe5gLv3orTPowbgpZ5-12" target="HGLe5gLv3orTPowbgpZ5-14" edge="1">
          <mxGeometry relative="1" as="geometry" />
        </mxCell>
        <mxCell id="HGLe5gLv3orTPowbgpZ5-12" value="1" style="rounded=0;whiteSpace=wrap;html=1;sketch=1;shadow=1;fillColor=#f8cecc;strokeColor=#b85450;gradientColor=#ea6b66;" parent="1" vertex="1">
          <mxGeometry x="80" y="240" width="40" height="30" as="geometry" />
        </mxCell>
        <mxCell id="HGLe5gLv3orTPowbgpZ5-13" value="" style="edgeStyle=orthogonalEdgeStyle;rounded=0;orthogonalLoop=1;jettySize=auto;html=1;sketch=1;shadow=1;fillColor=#f8cecc;strokeColor=#b85450;gradientColor=#ea6b66;" parent="1" source="HGLe5gLv3orTPowbgpZ5-14" target="HGLe5gLv3orTPowbgpZ5-16" edge="1">
          <mxGeometry relative="1" as="geometry" />
        </mxCell>
        <mxCell id="HGLe5gLv3orTPowbgpZ5-14" value="2" style="rounded=0;whiteSpace=wrap;html=1;sketch=1;shadow=1;fillColor=#f8cecc;strokeColor=#b85450;gradientColor=#ea6b66;" parent="1" vertex="1">
          <mxGeometry x="160" y="240" width="40" height="30" as="geometry" />
        </mxCell>
        <mxCell id="HGLe5gLv3orTPowbgpZ5-15" value="" style="edgeStyle=orthogonalEdgeStyle;rounded=0;orthogonalLoop=1;jettySize=auto;html=1;sketch=1;shadow=1;fillColor=#f8cecc;strokeColor=#b85450;gradientColor=#ea6b66;" parent="1" source="HGLe5gLv3orTPowbgpZ5-16" target="HGLe5gLv3orTPowbgpZ5-18" edge="1">
          <mxGeometry relative="1" as="geometry" />
        </mxCell>
        <mxCell id="HGLe5gLv3orTPowbgpZ5-16" value="3" style="rounded=0;whiteSpace=wrap;html=1;sketch=1;shadow=1;fillColor=#f8cecc;strokeColor=#b85450;gradientColor=#ea6b66;" parent="1" vertex="1">
          <mxGeometry x="240" y="240" width="40" height="30" as="geometry" />
        </mxCell>
        <mxCell id="HGLe5gLv3orTPowbgpZ5-17" value="" style="edgeStyle=orthogonalEdgeStyle;rounded=0;orthogonalLoop=1;jettySize=auto;html=1;sketch=1;shadow=1;fillColor=#f8cecc;strokeColor=#b85450;gradientColor=#ea6b66;" parent="1" source="HGLe5gLv3orTPowbgpZ5-18" target="HGLe5gLv3orTPowbgpZ5-19" edge="1">
          <mxGeometry relative="1" as="geometry" />
        </mxCell>
        <mxCell id="HGLe5gLv3orTPowbgpZ5-18" value="4" style="rounded=0;whiteSpace=wrap;html=1;sketch=1;shadow=1;fillColor=#f8cecc;strokeColor=#b85450;gradientColor=#ea6b66;" parent="1" vertex="1">
          <mxGeometry x="320" y="240" width="40" height="30" as="geometry" />
        </mxCell>
        <mxCell id="HGLe5gLv3orTPowbgpZ5-22" value="" style="edgeStyle=orthogonalEdgeStyle;rounded=0;sketch=1;orthogonalLoop=1;jettySize=auto;html=1;shadow=1;" parent="1" source="HGLe5gLv3orTPowbgpZ5-19" target="HGLe5gLv3orTPowbgpZ5-21" edge="1">
          <mxGeometry relative="1" as="geometry" />
        </mxCell>
        <mxCell id="HGLe5gLv3orTPowbgpZ5-19" value="5" style="rounded=0;whiteSpace=wrap;html=1;sketch=1;shadow=1;fillColor=#f8cecc;strokeColor=#b85450;gradientColor=#ea6b66;" parent="1" vertex="1">
          <mxGeometry x="400" y="240" width="40" height="30" as="geometry" />
        </mxCell>
        <mxCell id="HGLe5gLv3orTPowbgpZ5-20" value="" style="shape=flexArrow;endArrow=classic;html=1;rounded=0;shadow=1;sketch=1;" parent="1" edge="1">
          <mxGeometry width="50" height="50" relative="1" as="geometry">
            <mxPoint x="340" y="330" as="sourcePoint" />
            <mxPoint x="339.5" y="280" as="targetPoint" />
          </mxGeometry>
        </mxCell>
        <mxCell id="HGLe5gLv3orTPowbgpZ5-21" value="6" style="rounded=0;whiteSpace=wrap;html=1;sketch=1;shadow=1;fillColor=#f8cecc;strokeColor=#b85450;gradientColor=#ea6b66;" parent="1" vertex="1">
          <mxGeometry x="480" y="240" width="40" height="30" as="geometry" />
        </mxCell>
        <mxCell id="HGLe5gLv3orTPowbgpZ5-26" value="返回节点3" style="text;html=1;strokeColor=none;fillColor=none;align=center;verticalAlign=middle;whiteSpace=wrap;rounded=0;shadow=1;" parent="1" vertex="1">
          <mxGeometry x="290" y="140" width="60" height="30" as="geometry" />
        </mxCell>
        <mxCell id="HGLe5gLv3orTPowbgpZ5-27" value="返回节点4" style="text;html=1;strokeColor=none;fillColor=none;align=center;verticalAlign=middle;whiteSpace=wrap;rounded=0;shadow=1;" parent="1" vertex="1">
          <mxGeometry x="370" y="300" width="60" height="30" as="geometry" />
        </mxCell>
        <mxCell id="HGLe5gLv3orTPowbgpZ5-28" value="" style="edgeStyle=orthogonalEdgeStyle;rounded=0;orthogonalLoop=1;jettySize=auto;html=1;sketch=1;shadow=1;fillColor=#f8cecc;strokeColor=#b85450;gradientColor=#ea6b66;" parent="1" source="HGLe5gLv3orTPowbgpZ5-29" target="HGLe5gLv3orTPowbgpZ5-31" edge="1">
          <mxGeometry relative="1" as="geometry" />
        </mxCell>
        <mxCell id="HGLe5gLv3orTPowbgpZ5-29" value="1" style="rounded=0;whiteSpace=wrap;html=1;sketch=1;shadow=1;fillColor=#f8cecc;strokeColor=#b85450;gradientColor=#ea6b66;" parent="1" vertex="1">
          <mxGeometry x="270" y="490" width="40" height="30" as="geometry" />
        </mxCell>
        <mxCell id="HGLe5gLv3orTPowbgpZ5-30" value="" style="edgeStyle=orthogonalEdgeStyle;rounded=0;orthogonalLoop=1;jettySize=auto;html=1;sketch=1;shadow=1;fillColor=#f8cecc;strokeColor=#b85450;gradientColor=#ea6b66;" parent="1" source="HGLe5gLv3orTPowbgpZ5-31" target="HGLe5gLv3orTPowbgpZ5-33" edge="1">
          <mxGeometry relative="1" as="geometry" />
        </mxCell>
        <mxCell id="HGLe5gLv3orTPowbgpZ5-31" value="2" style="rounded=0;whiteSpace=wrap;html=1;sketch=1;shadow=1;fillColor=#f8cecc;strokeColor=#b85450;gradientColor=#ea6b66;" parent="1" vertex="1">
          <mxGeometry x="350" y="490" width="40" height="30" as="geometry" />
        </mxCell>
        <mxCell id="HGLe5gLv3orTPowbgpZ5-32" value="" style="edgeStyle=orthogonalEdgeStyle;rounded=0;orthogonalLoop=1;jettySize=auto;html=1;sketch=1;shadow=1;fillColor=#f8cecc;strokeColor=#b85450;gradientColor=#ea6b66;" parent="1" source="HGLe5gLv3orTPowbgpZ5-33" target="HGLe5gLv3orTPowbgpZ5-35" edge="1">
          <mxGeometry relative="1" as="geometry" />
        </mxCell>
        <mxCell id="HGLe5gLv3orTPowbgpZ5-33" value="3" style="rounded=0;whiteSpace=wrap;html=1;sketch=1;shadow=1;fillColor=#f8cecc;strokeColor=#b85450;gradientColor=#ea6b66;" parent="1" vertex="1">
          <mxGeometry x="430" y="490" width="40" height="30" as="geometry" />
        </mxCell>
        <mxCell id="HGLe5gLv3orTPowbgpZ5-34" value="" style="edgeStyle=orthogonalEdgeStyle;rounded=0;orthogonalLoop=1;jettySize=auto;html=1;sketch=1;shadow=1;fillColor=#f8cecc;strokeColor=#b85450;gradientColor=#ea6b66;" parent="1" source="HGLe5gLv3orTPowbgpZ5-35" target="HGLe5gLv3orTPowbgpZ5-36" edge="1">
          <mxGeometry relative="1" as="geometry" />
        </mxCell>
        <mxCell id="HGLe5gLv3orTPowbgpZ5-35" value="4" style="rounded=0;whiteSpace=wrap;html=1;sketch=1;shadow=1;fillColor=#f8cecc;strokeColor=#b85450;gradientColor=#ea6b66;" parent="1" vertex="1">
          <mxGeometry x="510" y="490" width="40" height="30" as="geometry" />
        </mxCell>
        <mxCell id="HGLe5gLv3orTPowbgpZ5-36" value="5" style="rounded=0;whiteSpace=wrap;html=1;sketch=1;shadow=1;fillColor=#f8cecc;strokeColor=#b85450;gradientColor=#ea6b66;" parent="1" vertex="1">
          <mxGeometry x="590" y="490" width="40" height="30" as="geometry" />
        </mxCell>
        <mxCell id="HGLe5gLv3orTPowbgpZ5-37" value="" style="shape=flexArrow;endArrow=classic;html=1;rounded=0;shadow=1;sketch=1;width=9;endSize=3.98;endWidth=14;fillColor=#dae8fc;gradientColor=#7ea6e0;strokeColor=#6c8ebf;" parent="1" edge="1">
          <mxGeometry width="50" height="50" relative="1" as="geometry">
            <mxPoint x="290" y="570" as="sourcePoint" />
            <mxPoint x="289.5" y="530" as="targetPoint" />
          </mxGeometry>
        </mxCell>
        <mxCell id="HGLe5gLv3orTPowbgpZ5-39" value="" style="shape=flexArrow;endArrow=classic;html=1;rounded=0;shadow=1;sketch=1;width=9;endSize=3.98;endWidth=14;fillColor=#d5e8d4;gradientColor=#97d077;strokeColor=#82b366;" parent="1" edge="1">
          <mxGeometry width="50" height="50" relative="1" as="geometry">
            <mxPoint x="290" y="440" as="sourcePoint" />
            <mxPoint x="290" y="480" as="targetPoint" />
          </mxGeometry>
        </mxCell>
        <mxCell id="HGLe5gLv3orTPowbgpZ5-42" value="" style="edgeStyle=orthogonalEdgeStyle;rounded=0;orthogonalLoop=1;jettySize=auto;html=1;sketch=1;shadow=1;fillColor=#f8cecc;strokeColor=#b85450;gradientColor=#ea6b66;" parent="1" source="HGLe5gLv3orTPowbgpZ5-43" target="HGLe5gLv3orTPowbgpZ5-45" edge="1">
          <mxGeometry relative="1" as="geometry" />
        </mxCell>
        <mxCell id="HGLe5gLv3orTPowbgpZ5-43" value="1" style="rounded=0;whiteSpace=wrap;html=1;sketch=1;shadow=1;fillColor=#f8cecc;strokeColor=#b85450;gradientColor=#ea6b66;" parent="1" vertex="1">
          <mxGeometry x="270" y="700" width="40" height="30" as="geometry" />
        </mxCell>
        <mxCell id="HGLe5gLv3orTPowbgpZ5-44" value="" style="edgeStyle=orthogonalEdgeStyle;rounded=0;orthogonalLoop=1;jettySize=auto;html=1;sketch=1;shadow=1;fillColor=#f8cecc;strokeColor=#b85450;gradientColor=#ea6b66;" parent="1" source="HGLe5gLv3orTPowbgpZ5-45" target="HGLe5gLv3orTPowbgpZ5-47" edge="1">
          <mxGeometry relative="1" as="geometry" />
        </mxCell>
        <mxCell id="HGLe5gLv3orTPowbgpZ5-45" value="2" style="rounded=0;whiteSpace=wrap;html=1;sketch=1;shadow=1;fillColor=#f8cecc;strokeColor=#b85450;gradientColor=#ea6b66;" parent="1" vertex="1">
          <mxGeometry x="350" y="700" width="40" height="30" as="geometry" />
        </mxCell>
        <mxCell id="HGLe5gLv3orTPowbgpZ5-46" value="" style="edgeStyle=orthogonalEdgeStyle;rounded=0;orthogonalLoop=1;jettySize=auto;html=1;sketch=1;shadow=1;fillColor=#f8cecc;strokeColor=#b85450;gradientColor=#ea6b66;" parent="1" source="HGLe5gLv3orTPowbgpZ5-47" target="HGLe5gLv3orTPowbgpZ5-49" edge="1">
          <mxGeometry relative="1" as="geometry" />
        </mxCell>
        <mxCell id="HGLe5gLv3orTPowbgpZ5-47" value="3" style="rounded=0;whiteSpace=wrap;html=1;sketch=1;shadow=1;fillColor=#f8cecc;strokeColor=#b85450;gradientColor=#ea6b66;" parent="1" vertex="1">
          <mxGeometry x="430" y="700" width="40" height="30" as="geometry" />
        </mxCell>
        <mxCell id="HGLe5gLv3orTPowbgpZ5-48" value="" style="edgeStyle=orthogonalEdgeStyle;rounded=0;orthogonalLoop=1;jettySize=auto;html=1;sketch=1;shadow=1;fillColor=#f8cecc;strokeColor=#b85450;gradientColor=#ea6b66;" parent="1" source="HGLe5gLv3orTPowbgpZ5-49" target="HGLe5gLv3orTPowbgpZ5-50" edge="1">
          <mxGeometry relative="1" as="geometry" />
        </mxCell>
        <mxCell id="HGLe5gLv3orTPowbgpZ5-49" value="4" style="rounded=0;whiteSpace=wrap;html=1;sketch=1;shadow=1;fillColor=#f8cecc;strokeColor=#b85450;gradientColor=#ea6b66;" parent="1" vertex="1">
          <mxGeometry x="510" y="700" width="40" height="30" as="geometry" />
        </mxCell>
        <mxCell id="HGLe5gLv3orTPowbgpZ5-50" value="5" style="rounded=0;whiteSpace=wrap;html=1;sketch=1;shadow=1;fillColor=#f8cecc;strokeColor=#b85450;gradientColor=#ea6b66;" parent="1" vertex="1">
          <mxGeometry x="590" y="700" width="40" height="30" as="geometry" />
        </mxCell>
        <mxCell id="HGLe5gLv3orTPowbgpZ5-51" value="" style="shape=flexArrow;endArrow=classic;html=1;rounded=0;shadow=1;sketch=1;width=9;endSize=3.98;endWidth=14;fillColor=#dae8fc;gradientColor=#7ea6e0;strokeColor=#6c8ebf;" parent="1" edge="1">
          <mxGeometry width="50" height="50" relative="1" as="geometry">
            <mxPoint x="450" y="780" as="sourcePoint" />
            <mxPoint x="449.5" y="740" as="targetPoint" />
          </mxGeometry>
        </mxCell>
        <mxCell id="HGLe5gLv3orTPowbgpZ5-52" value="" style="shape=flexArrow;endArrow=classic;html=1;rounded=0;shadow=1;sketch=1;width=9;endSize=3.98;endWidth=14;fillColor=#d5e8d4;gradientColor=#97d077;strokeColor=#82b366;" parent="1" edge="1">
          <mxGeometry width="50" height="50" relative="1" as="geometry">
            <mxPoint x="369.5" y="650" as="sourcePoint" />
            <mxPoint x="369.5" y="690" as="targetPoint" />
          </mxGeometry>
        </mxCell>
        <mxCell id="HGLe5gLv3orTPowbgpZ5-53" value="" style="edgeStyle=orthogonalEdgeStyle;rounded=0;orthogonalLoop=1;jettySize=auto;html=1;sketch=1;shadow=1;fillColor=#f8cecc;strokeColor=#b85450;gradientColor=#ea6b66;" parent="1" source="HGLe5gLv3orTPowbgpZ5-54" target="HGLe5gLv3orTPowbgpZ5-56" edge="1">
          <mxGeometry relative="1" as="geometry" />
        </mxCell>
        <mxCell id="HGLe5gLv3orTPowbgpZ5-54" value="1" style="rounded=0;whiteSpace=wrap;html=1;sketch=1;shadow=1;fillColor=#f8cecc;strokeColor=#b85450;gradientColor=#ea6b66;" parent="1" vertex="1">
          <mxGeometry x="270" y="890" width="40" height="30" as="geometry" />
        </mxCell>
        <mxCell id="HGLe5gLv3orTPowbgpZ5-55" value="" style="edgeStyle=orthogonalEdgeStyle;rounded=0;orthogonalLoop=1;jettySize=auto;html=1;sketch=1;shadow=1;fillColor=#f8cecc;strokeColor=#b85450;gradientColor=#ea6b66;" parent="1" source="HGLe5gLv3orTPowbgpZ5-56" target="HGLe5gLv3orTPowbgpZ5-58" edge="1">
          <mxGeometry relative="1" as="geometry" />
        </mxCell>
        <mxCell id="HGLe5gLv3orTPowbgpZ5-56" value="2" style="rounded=0;whiteSpace=wrap;html=1;sketch=1;shadow=1;fillColor=#f8cecc;strokeColor=#b85450;gradientColor=#ea6b66;" parent="1" vertex="1">
          <mxGeometry x="350" y="890" width="40" height="30" as="geometry" />
        </mxCell>
        <mxCell id="HGLe5gLv3orTPowbgpZ5-57" value="" style="edgeStyle=orthogonalEdgeStyle;rounded=0;orthogonalLoop=1;jettySize=auto;html=1;sketch=1;shadow=1;fillColor=#f8cecc;strokeColor=#b85450;gradientColor=#ea6b66;" parent="1" source="HGLe5gLv3orTPowbgpZ5-58" target="HGLe5gLv3orTPowbgpZ5-60" edge="1">
          <mxGeometry relative="1" as="geometry" />
        </mxCell>
        <mxCell id="HGLe5gLv3orTPowbgpZ5-58" value="3" style="rounded=0;whiteSpace=wrap;html=1;sketch=1;shadow=1;fillColor=#f8cecc;strokeColor=#b85450;gradientColor=#ea6b66;" parent="1" vertex="1">
          <mxGeometry x="430" y="890" width="40" height="30" as="geometry" />
        </mxCell>
        <mxCell id="HGLe5gLv3orTPowbgpZ5-59" value="" style="edgeStyle=orthogonalEdgeStyle;rounded=0;orthogonalLoop=1;jettySize=auto;html=1;sketch=1;shadow=1;fillColor=#f8cecc;strokeColor=#b85450;gradientColor=#ea6b66;" parent="1" source="HGLe5gLv3orTPowbgpZ5-60" target="HGLe5gLv3orTPowbgpZ5-61" edge="1">
          <mxGeometry relative="1" as="geometry" />
        </mxCell>
        <mxCell id="HGLe5gLv3orTPowbgpZ5-60" value="4" style="rounded=0;whiteSpace=wrap;html=1;sketch=1;shadow=1;fillColor=#f8cecc;strokeColor=#b85450;gradientColor=#ea6b66;" parent="1" vertex="1">
          <mxGeometry x="510" y="890" width="40" height="30" as="geometry" />
        </mxCell>
        <mxCell id="HGLe5gLv3orTPowbgpZ5-61" value="5" style="rounded=0;whiteSpace=wrap;html=1;sketch=1;shadow=1;fillColor=#f8cecc;strokeColor=#b85450;gradientColor=#ea6b66;" parent="1" vertex="1">
          <mxGeometry x="590" y="890" width="40" height="30" as="geometry" />
        </mxCell>
        <mxCell id="HGLe5gLv3orTPowbgpZ5-62" value="" style="shape=flexArrow;endArrow=classic;html=1;rounded=0;shadow=1;sketch=1;width=9;endSize=3.98;endWidth=14;fillColor=#dae8fc;gradientColor=#7ea6e0;strokeColor=#6c8ebf;" parent="1" edge="1">
          <mxGeometry width="50" height="50" relative="1" as="geometry">
            <mxPoint x="610" y="970" as="sourcePoint" />
            <mxPoint x="609.5" y="930" as="targetPoint" />
          </mxGeometry>
        </mxCell>
        <mxCell id="HGLe5gLv3orTPowbgpZ5-63" value="" style="shape=flexArrow;endArrow=classic;html=1;rounded=0;shadow=1;sketch=1;width=9;endSize=3.98;endWidth=14;fillColor=#d5e8d4;gradientColor=#97d077;strokeColor=#82b366;" parent="1" edge="1">
          <mxGeometry width="50" height="50" relative="1" as="geometry">
            <mxPoint x="449.5" y="840" as="sourcePoint" />
            <mxPoint x="449.5" y="880" as="targetPoint" />
          </mxGeometry>
        </mxCell>
        <mxCell id="HGLe5gLv3orTPowbgpZ5-65" value="" style="shape=flexArrow;endArrow=classic;html=1;rounded=0;shadow=1;sketch=1;width=9;endSize=3.98;endWidth=14;fillColor=#dae8fc;gradientColor=#7ea6e0;strokeColor=#6c8ebf;" parent="1" edge="1">
          <mxGeometry width="50" height="50" relative="1" as="geometry">
            <mxPoint x="140.5" y="480" as="sourcePoint" />
            <mxPoint x="140" y="440" as="targetPoint" />
          </mxGeometry>
        </mxCell>
        <mxCell id="HGLe5gLv3orTPowbgpZ5-66" value="快指针" style="text;html=1;strokeColor=none;fillColor=none;align=center;verticalAlign=middle;whiteSpace=wrap;rounded=0;shadow=1;fontColor=#000000;" parent="1" vertex="1">
          <mxGeometry x="160" y="450" width="60" height="30" as="geometry" />
        </mxCell>
        <mxCell id="HGLe5gLv3orTPowbgpZ5-67" value="" style="shape=flexArrow;endArrow=classic;html=1;rounded=0;shadow=1;sketch=1;width=9;endSize=3.98;endWidth=14;fillColor=#d5e8d4;gradientColor=#97d077;strokeColor=#82b366;" parent="1" edge="1">
          <mxGeometry width="50" height="50" relative="1" as="geometry">
            <mxPoint x="140" y="510" as="sourcePoint" />
            <mxPoint x="140" y="550" as="targetPoint" />
          </mxGeometry>
        </mxCell>
        <mxCell id="HGLe5gLv3orTPowbgpZ5-68" value="慢指针" style="text;html=1;strokeColor=none;fillColor=none;align=center;verticalAlign=middle;whiteSpace=wrap;rounded=0;shadow=1;fontColor=#000000;" parent="1" vertex="1">
          <mxGeometry x="160" y="520" width="60" height="30" as="geometry" />
        </mxCell>
        <mxCell id="HGLe5gLv3orTPowbgpZ5-69" value="" style="edgeStyle=orthogonalEdgeStyle;rounded=0;orthogonalLoop=1;jettySize=auto;html=1;sketch=1;shadow=1;fillColor=#f8cecc;strokeColor=#b85450;gradientColor=#ea6b66;" parent="1" source="HGLe5gLv3orTPowbgpZ5-70" target="HGLe5gLv3orTPowbgpZ5-72" edge="1">
          <mxGeometry relative="1" as="geometry" />
        </mxCell>
        <mxCell id="HGLe5gLv3orTPowbgpZ5-70" value="1" style="rounded=0;whiteSpace=wrap;html=1;sketch=1;shadow=1;fillColor=#f8cecc;strokeColor=#b85450;gradientColor=#ea6b66;" parent="1" vertex="1">
          <mxGeometry x="270" y="1089" width="40" height="30" as="geometry" />
        </mxCell>
        <mxCell id="HGLe5gLv3orTPowbgpZ5-71" value="" style="edgeStyle=orthogonalEdgeStyle;rounded=0;orthogonalLoop=1;jettySize=auto;html=1;sketch=1;shadow=1;fillColor=#f8cecc;strokeColor=#b85450;gradientColor=#ea6b66;" parent="1" source="HGLe5gLv3orTPowbgpZ5-72" target="HGLe5gLv3orTPowbgpZ5-74" edge="1">
          <mxGeometry relative="1" as="geometry" />
        </mxCell>
        <mxCell id="HGLe5gLv3orTPowbgpZ5-72" value="2" style="rounded=0;whiteSpace=wrap;html=1;sketch=1;shadow=1;fillColor=#f8cecc;strokeColor=#b85450;gradientColor=#ea6b66;" parent="1" vertex="1">
          <mxGeometry x="350" y="1089" width="40" height="30" as="geometry" />
        </mxCell>
        <mxCell id="HGLe5gLv3orTPowbgpZ5-73" value="" style="edgeStyle=orthogonalEdgeStyle;rounded=0;orthogonalLoop=1;jettySize=auto;html=1;sketch=1;shadow=1;fillColor=#f8cecc;strokeColor=#b85450;gradientColor=#ea6b66;" parent="1" source="HGLe5gLv3orTPowbgpZ5-74" target="HGLe5gLv3orTPowbgpZ5-76" edge="1">
          <mxGeometry relative="1" as="geometry" />
        </mxCell>
        <mxCell id="HGLe5gLv3orTPowbgpZ5-74" value="3" style="rounded=0;whiteSpace=wrap;html=1;sketch=1;shadow=1;fillColor=#f8cecc;strokeColor=#b85450;gradientColor=#ea6b66;" parent="1" vertex="1">
          <mxGeometry x="430" y="1089" width="40" height="30" as="geometry" />
        </mxCell>
        <mxCell id="HGLe5gLv3orTPowbgpZ5-75" value="" style="edgeStyle=orthogonalEdgeStyle;rounded=0;orthogonalLoop=1;jettySize=auto;html=1;sketch=1;shadow=1;fillColor=#f8cecc;strokeColor=#b85450;gradientColor=#ea6b66;" parent="1" source="HGLe5gLv3orTPowbgpZ5-76" target="HGLe5gLv3orTPowbgpZ5-77" edge="1">
          <mxGeometry relative="1" as="geometry" />
        </mxCell>
        <mxCell id="HGLe5gLv3orTPowbgpZ5-76" value="4" style="rounded=0;whiteSpace=wrap;html=1;sketch=1;shadow=1;fillColor=#f8cecc;strokeColor=#b85450;gradientColor=#ea6b66;" parent="1" vertex="1">
          <mxGeometry x="510" y="1089" width="40" height="30" as="geometry" />
        </mxCell>
        <mxCell id="HGLe5gLv3orTPowbgpZ5-81" value="" style="edgeStyle=orthogonalEdgeStyle;rounded=0;sketch=1;orthogonalLoop=1;jettySize=auto;html=1;shadow=1;fontColor=#000000;" parent="1" source="HGLe5gLv3orTPowbgpZ5-77" target="HGLe5gLv3orTPowbgpZ5-80" edge="1">
          <mxGeometry relative="1" as="geometry" />
        </mxCell>
        <mxCell id="HGLe5gLv3orTPowbgpZ5-77" value="5" style="rounded=0;whiteSpace=wrap;html=1;sketch=1;shadow=1;fillColor=#f8cecc;strokeColor=#b85450;gradientColor=#ea6b66;" parent="1" vertex="1">
          <mxGeometry x="590" y="1089" width="40" height="30" as="geometry" />
        </mxCell>
        <mxCell id="HGLe5gLv3orTPowbgpZ5-78" value="" style="shape=flexArrow;endArrow=classic;html=1;rounded=0;shadow=1;sketch=1;width=9;endSize=3.98;endWidth=14;fillColor=#dae8fc;gradientColor=#7ea6e0;strokeColor=#6c8ebf;" parent="1" edge="1">
          <mxGeometry width="50" height="50" relative="1" as="geometry">
            <mxPoint x="770" y="1169" as="sourcePoint" />
            <mxPoint x="769.5" y="1129" as="targetPoint" />
          </mxGeometry>
        </mxCell>
        <mxCell id="HGLe5gLv3orTPowbgpZ5-79" value="" style="shape=flexArrow;endArrow=classic;html=1;rounded=0;shadow=1;sketch=1;width=9;endSize=3.98;endWidth=14;fillColor=#d5e8d4;gradientColor=#97d077;strokeColor=#82b366;" parent="1" edge="1">
          <mxGeometry width="50" height="50" relative="1" as="geometry">
            <mxPoint x="529.5" y="1039" as="sourcePoint" />
            <mxPoint x="529.5" y="1079" as="targetPoint" />
          </mxGeometry>
        </mxCell>
        <mxCell id="HGLe5gLv3orTPowbgpZ5-83" value="" style="edgeStyle=orthogonalEdgeStyle;rounded=0;sketch=1;orthogonalLoop=1;jettySize=auto;html=1;shadow=1;fontColor=#000000;" parent="1" source="HGLe5gLv3orTPowbgpZ5-80" target="HGLe5gLv3orTPowbgpZ5-82" edge="1">
          <mxGeometry relative="1" as="geometry" />
        </mxCell>
        <mxCell id="HGLe5gLv3orTPowbgpZ5-80" value="6" style="rounded=0;whiteSpace=wrap;html=1;sketch=1;shadow=1;fillColor=#f8cecc;strokeColor=#b85450;gradientColor=#ea6b66;" parent="1" vertex="1">
          <mxGeometry x="670" y="1089" width="40" height="30" as="geometry" />
        </mxCell>
        <mxCell id="HGLe5gLv3orTPowbgpZ5-82" value="null" style="rounded=0;whiteSpace=wrap;html=1;sketch=1;shadow=1;fillColor=#f5f5f5;strokeColor=#666666;gradientColor=#b3b3b3;" parent="1" vertex="1">
          <mxGeometry x="750" y="1089" width="40" height="30" as="geometry" />
        </mxCell>
      </root>
    </mxGraphModel>
  </diagram>
</mxfile>
